<svg xmlns="http://www.w3.org/2000/svg" viewBox="0 0 161 45" fill="#3C1A5B">
  <path d="M22,22c4-2,6-5,6-10,0-7-6-12-12-12H0v44h17c9,0,14-6,14-13s-3-10-10-11ZM10,10h3c3,0,5,2,5,5s-2,5-5,5h-3V10ZM15,37H10V26h5c4,0,6,2,6,6s-2,5-6,5Z"/>
  <polygon points="43 0 32 0 32 44 57 44 57 35 43 35 43 0"/>
  <path d="M68,0h2v44h-2zM60,0h2v44h-2zM64,0h2v44h-2zM72,0h13v10h-13zM72,18h13v10h-13zM72,34h13v10h-13z"/>
  <polygon points="112 27 97 0 88 0 88 44 99 44 99 19 113 44 123 44 123 0 112 0 112 27"/>
  <path d="M136,0h-10v44h10c17,0,25-10,25-22S153,0,136,0ZM137,36V10c10,0,14,5,14,12s-5,12-14,12Z"/>
</svg>